<svg width="18" height="14" viewBox="0 0 18 14" fill="none" xmlns="http://www.w3.org/2000/svg">
<g opacity="0.8">
<path d="M5.00003 1.55264C5.00003 0.862288 5.55967 0.302643 6.25003 0.302643H16.75C17.4404 0.302643 18 0.862287 18 1.55264V1.68421C18 2.37457 17.4404 2.93422 16.75 2.93422H6.25003C5.55968 2.93422 5.00003 2.37457 5.00003 1.68422V1.55264Z" fill="white"/>
<path d="M5.00003 6.8158C5.00003 6.12544 5.55967 5.5658 6.25003 5.5658H16.75C17.4404 5.5658 18 6.12544 18 6.8158V6.94737C18 7.63772 17.4404 8.19737 16.75 8.19737H6.25003C5.55968 8.19737 5.00003 7.63772 5.00003 6.94737V6.8158Z" fill="white"/>
<path d="M4.57764e-05 12.0789C4.57764e-05 11.3886 0.55969 10.8289 1.25005 10.8289H16.75C17.4404 10.8289 18 11.3886 18 12.0789V12.2105C18 12.9009 17.4404 13.4605 16.75 13.4605H1.25005C0.559691 13.4605 4.57764e-05 12.9009 4.57764e-05 12.2105V12.0789Z" fill="white"/>
</g>
</svg>
